<mxfile host="app.diagrams.net" modified="2024-02-14T01:19:30.412Z" agent="Mozilla/5.0 (Windows NT 10.0; Win64; x64) AppleWebKit/537.36 (KHTML, like Gecko) Chrome/120.0.0.0 Safari/537.36" version="23.1.4" etag="yovGA85zD2fmAKmux3_Z" type="github">
  <diagram name="Page-1" id="FwJZfEj63_o7N4RfvILY">
    <mxGraphModel>
      <root>
        <mxCell id="0" />
        <mxCell id="1" parent="0" />
      </root>
    </mxGraphModel>
  </diagram>
</mxfile>
